<svg preserveAspectRatio="xMidYMax slice" xmlns="http://www.w3.org/2000/svg" viewBox="0 0 2001 77" class="seperator"><path opacity=".5" d="M1993 46V24l-19-11-19 11v22l19 11 19-11zM1942 72V60l-10-5-10 5v12l10 5 10-5z"/><path opacity=".75" d="M1961 52V36l-14-8-14 8v16l14 9 14-9zM1969 69v-8l-7-4-6 4v8l6 4 7-4z"/><path opacity=".5" d="M1871 46V24l19-11 19 11v22l-19 11-19-11z"/><path opacity=".75" d="M1903 52V36l14-8 14 8v16l-14 9-14-9zM1895 69v-8l7-4 7 4v8l-7 4-7-4z"/><path opacity=".5" d="M1855 46V24l-19-11-19 11v22l19 11 19-11zM1803 72V60l-9-5-10 5v12l10 5 9-5z"/><path opacity=".75" d="M1823 52V36l-14-8-14 8v16l14 9 14-9zM1831 69v-8l-7-4-7 4v8l7 4 7-4z"/><path opacity=".5" d="M1733 46V24l19-11 19 11v22l-19 11-19-11z"/><path opacity=".75" d="M1765 52V36l14-8 14 8v16l-14 9-14-9zM1757 69v-8l6-4 7 4v8l-7 4-6-4z"/><path opacity=".5" d="M1717 46V24l-19-11-19 11v22l19 11 19-11zM1665 72V60l-9-5-10 5v12l10 5 9-5z"/><path opacity=".75" d="M1685 52V36l-14-8-14 8v16l14 9 14-9zM1693 69v-8l-7-4-7 4v8l7 4 7-4z"/><path opacity=".5" d="M1594 46V24l19-11 20 11v22l-20 11-19-11z"/><path opacity=".75" d="M1626 52V36l14-8 15 8v16l-15 9-14-9zM1618 69v-8l7-4 7 4v8l-7 4-7-4z"/><path opacity=".5" d="M1579 46V24l-19-11-20 11v22l20 11 19-11zM1527 72V60l-10-5-9 5v12l9 5 10-5z"/><path opacity=".75" d="M1547 52V36l-14-8-15 8v16l15 9 14-9zM1555 69v-8l-7-4-7 4v8l7 4 7-4z"/><path opacity=".5" d="M1456 46V24l19-11 19 11v22l-19 11-19-11z"/><path opacity=".75" d="M1488 52V36l14-8 14 8v16l-14 9-14-9zM1480 69v-8l7-4 7 4v8l-7 4-7-4z"/><path opacity=".5" d="M1441 46V24l-20-11-19 11v22l19 11 20-11zM1389 72V60l-10-5-9 5v12l9 5 10-5z"/><path opacity=".75" d="M1408 52V36l-14-8-14 8v16l14 9 14-9zM1416 69v-8l-6-4-7 4v8l7 4 6-4z"/><path opacity=".5" d="M1318 46V24l19-11 19 11v22l-19 11-19-11z"/><path opacity=".75" d="M1350 52V36l14-8 14 8v16l-14 9-14-9zM1342 69v-8l7-4 7 4v8l-7 4-7-4z"/><path opacity=".5" d="M1302 46V24l-19-11-19 11v22l19 11 19-11zM1251 72V60l-10-5-10 5v12l10 5 10-5z"/><path opacity=".75" d="M1270 52V36l-14-8-14 8v16l14 9 14-9zM1278 69v-8l-7-4-7 4v8l7 4 7-4z"/><path opacity=".5" d="M1180 46V24l19-11 19 11v22l-19 11-19-11z"/><path opacity=".75" d="M1212 52V36l14-8 14 8v16l-14 9-14-9zM1204 69v-8l7-4 7 4v8l-7 4-7-4z"/><path opacity=".5" d="M1164 46V24l-19-11-19 11v22l19 11 19-11zM1112 72V60l-9-5-10 5v12l10 5 9-5z"/><path opacity=".75" d="M1132 52V36l-14-8-14 8v16l14 9 14-9zM1140 69v-8l-7-4-7 4v8l7 4 7-4z"/><path opacity=".5" d="M1041 46V24l20-11 19 11v22l-19 11-20-11z"/><path opacity=".75" d="M1074 52V36l14-8 14 8v16l-14 9-14-9zM1066 69v-8l6-4 7 4v8l-7 4-6-4z"/><path opacity=".5" d="M1026 46V24l-19-11-20 11v22l20 11 19-11zM974 72V60l-9-5-10 5v12l10 5 9-5z"/><path opacity=".75" d="M994 52V36l-14-8-14 8v16l14 9 14-9zM1002 69v-8l-7-4-7 4v8l7 4 7-4z"/><path opacity=".5" d="M903 46V24l19-11 20 11v22l-20 11-19-11z"/><path opacity=".75" d="M935 52V36l14-8 15 8v16l-15 9-14-9zM927 69v-8l7-4 7 4v8l-7 4-7-4z"/><path opacity=".5" d="M888 46V24l-20-11-19 11v22l19 11 20-11zM836 72V60l-10-5-9 5v12l9 5 10-5z"/><path opacity=".75" d="M856 52V36l-15-8-14 8v16l14 9 15-9zM864 69v-8l-7-4-7 4v8l7 4 7-4z"/><path opacity=".5" d="M765 46V24l19-11 19 11v22l-19 11-19-11z"/><path opacity=".75" d="M797 52V36l14-8 14 8v16l-14 9-14-9zM789 69v-8l7-4 7 4v8l-7 4-7-4z"/><path opacity=".5" d="M749 46V24l-19-11-19 11v22l19 11 19-11zM698 72V60l-10-5-9 5v12l9 5 10-5z"/><path opacity=".75" d="M717 52V36l-14-8-14 8v16l14 9 14-9zM725 69v-8l-7-4-6 4v8l6 4 7-4z"/><path opacity=".5" d="M627 46V24l19-11 19 11v22l-19 11-19-11z"/><path opacity=".75" d="M659 52V36l14-8 14 8v16l-14 9-14-9zM651 69v-8l7-4 7 4v8l-7 4-7-4z"/><path opacity=".5" d="M611 46V24l-19-11-19 11v22l19 11 19-11zM560 72V60l-10-5-10 5v12l10 5 10-5z"/><path opacity=".75" d="M579 52V36l-14-8-14 8v16l14 9 14-9zM587 69v-8l-7-4-7 4v8l7 4 7-4z"/><path opacity=".5" d="M489 46V24l19-11 19 11v22l-19 11-19-11z"/><path opacity=".75" d="M521 52V36l14-8 14 8v16l-14 9-14-9zM513 69v-8l7-4 6 4v8l-6 4-7-4z"/><path opacity=".5" d="M473 46V24l-19-11-19 11v22l19 11 19-11zM421 72V60l-9-5-10 5v12l10 5 9-5z"/><path opacity=".75" d="M441 52V36l-14-8-14 8v16l14 9 14-9zM449 69v-8l-7-4-7 4v8l7 4 7-4z"/><path opacity=".5" d="M350 46V24l20-11 19 11v22l-19 11-20-11z"/><path opacity=".75" d="M382 52V36l15-8 14 8v16l-14 9-15-9zM374 69v-8l7-4 7 4v8l-7 4-7-4z"/><path opacity=".5" d="M335 46V24l-19-11-20 11v22l20 11 19-11zM283 72V60l-10-5-9 5v12l9 5 10-5z"/><path opacity=".75" d="M303 52V36l-14-8-14 8v16l14 9 14-9zM311 69v-8l-7-4-7 4v8l7 4 7-4z"/><path opacity=".5" d="M212 46V24l19-11 20 11v22l-20 11-19-11z"/><path opacity=".75" d="M244 52V36l14-8 14 8v16l-14 9-14-9zM236 69v-8l7-4 7 4v8l-7 4-7-4z"/><path opacity=".5" d="M197 46V24l-20-11-19 11v22l19 11 20-11zM145 72V60l-10-5-9 5v12l9 5 10-5z"/><path opacity=".75" d="M164 52V36l-14-8-14 8v16l14 9 14-9zM173 69v-8l-7-4-7 4v8l7 4 7-4z"/><path opacity=".5" d="M74 46V24l19-11 19 11v22L93 57 74 46z"/><path opacity=".3" d="M53 68V54l13-8 13 8v14l-13 8-13-8zM191 68V54l13-8 13 8v14l-13 8-13-8zM330 68V54l13-8 13 8v14l-13 8-13-8zM468 68V54l13-8 13 8v14l-13 8-13-8zM606 68V54l13-8 13 8v14l-13 8-13-8zM744 68V54l13-8 13 8v14l-13 8-13-8zM883 68V54l12-8 13 8v14l-13 8-12-8zM1021 68V54l13-8 13 8v14l-13 8-13-8zM1159 68V54l13-8 13 8v14l-13 8-13-8zM1297 68V54l13-8 13 8v14l-13 8-13-8zM1435 68V54l13-8 13 8v14l-13 8-13-8zM1574 68V54l13-8 12 8v14l-12 8-13-8zM1712 68V54l13-8 13 8v14l-13 8-13-8zM1850 68V54l13-8 13 8v14l-13 8-13-8z"/><path opacity=".75" d="M106 52V36l14-8 14 8v16l-14 9-14-9zM98 69v-8l7-4 7 4v8l-7 4-7-4z"/><path opacity=".5" d="M58 46V24L39 13 20 24v22l19 11 19-11z"/><path opacity=".75" d="M34 69v-8l-7-4-6 4v8l6 4 7-4z"/><path d="M2001 0v15l-21 12-24-14-23 14-23-14-24 14-23-14-23 14-23-14-24 14-23-14-23 14-24-14-23 14-23-14-23 14-24-14-23 14-23-14-24 14-23-14-23 14-23-14-24 14-23-14-23 14-24-14-23 14-23-14-23 14-24-14-23 14-23-14-24 14-23-14-23 14-23-14-24 14-23-14-23 14-24-14-23 14-23-14-24 14-23-14-23 14-23-14-24 14-23-14-23 14-24-14-23 14-23-14-23 14-24-14-23 14-23-14-24 14-23-14-23 14-23-14-24 14-23-14-23 14-24-14-23 14-23-14-23 14-24-14-23 14-23-14-24 14-23-14-23 14-24-14-23 14-23-14-23 14-24-14-23 14-23-14-24 14-23-14-23 14-23-14-24 14L0 13V0h2001z"/><path opacity=".75" d="M12 28L0 35v19l12 7 14-9V36l-14-8z"/><path opacity=".3" d="M2001 46l-13 8v14l13 8V46z"/></svg>