<?xml version="1.0" encoding="UTF-8" standalone="no"?>
<svg
   width="1200"
   height="628"
   viewBox="0 0 1200 628"
   version="1.1"
   id="svg5"
   sodipodi:docname="i-build-things-preview.svg"
   inkscape:export-filename="..\..\..\..\src\assets\images\opengraph-default.jpg"
   inkscape:export-xdpi="96"
   inkscape:export-ydpi="96"
   xmlns:inkscape="http://www.inkscape.org/namespaces/inkscape"
   xmlns:sodipodi="http://sodipodi.sourceforge.net/DTD/sodipodi-0.dtd"
   xmlns="http://www.w3.org/2000/svg"
   xmlns:svg="http://www.w3.org/2000/svg">
  <defs
     id="defs5" />
  <sodipodi:namedview
     id="namedview5"
     pagecolor="#ffffff"
     bordercolor="#000000"
     borderopacity="0.25"
     inkscape:showpageshadow="2"
     inkscape:pageopacity="0.0"
     inkscape:pagecheckerboard="0"
     inkscape:deskcolor="#d1d1d1" />
  <!-- SVG background, generate your own on: https://app.haikei.app/  -->
  <svg
     id="visual"
     viewBox="0 0 1200 628"
     width="1200"
     height="628"
     version="1.1">
    <rect
       x="0"
       y="0"
       width="1200"
       height="628"
       fill="#f4f7f5"
       id="rect1" />
    <path
       d="m 0,0 v 46.29 c 47.79,22.2 103.59,32.17 158,28 70.36,-5.37 136.33,-33.31 206.8,-37.5 73.84,-4.36 147.54,16.88 218.2,35.26 69.27,18 138.3,24.88 209.4,13.08 36.15,-6 69.85,-17.84 104.45,-29.34 C 989.49,25 1113,-14.29 1200,52.47 V 0 Z"
       opacity="0.25"
       fill="#d81e5b"
       class="shape-fill"
       id="path1" />
    <path
       fill="#d81e5b"
       d="M 0,0 V 15.81 C 13,36.92 27.64,56.86 47.69,72.05 99.41,111.27 165,111 224.58,91.58 c 31.15,-10.15 60.09,-26.07 89.67,-39.8 40.92,-19 84.73,-46 130.83,-49.67 36.26,-2.85 70.9,9.42 98.6,31.56 31.77,25.39 62.32,62 103.63,73 40.44,10.79 81.35,-6.69 119.13,-24.28 37.78,-17.59 75.16,-39 116.92,-43.05 59.73,-5.85 113.28,22.88 168.9,38.84 30.2,8.66 59,6.17 87.09,-7.5 22.43,-10.89 48,-26.93 60.65,-49.24 V 0 Z"
       opacity="0.5"
       class="shape-fill"
       id="path2" />
    <path
       fill="#d81e5b"
       d="M 0,0 V 5.63 C 149.93,59 314.09,71.32 475.83,42.57 518.83,34.93 560.06,22.45 603.44,16.11 662.44,7.48 715.92,28.35 769,51.51 827.93,77.22 886,95.24 951.2,90 1037.73,83 1123.66,44.29 1200,5.19 V 0 Z"
       class="shape-fill"
       id="path3" />
  </svg>
  <!-- date -->
  <!-- title -->
  <text
     id="text"
     font-family="Redhat, Roboto, 'Helvetica Neue', sans-serif"
     font-size="80px"
     font-weight="900"
     fill="#2b2926"
     letter-spacing="-3"><tspan
       x="160"
       y="320"
       id="tspan4">I Build Things</tspan></text>
  <!-- sitename -->
  <text
     font-family="Redhat, Roboto, 'Helvetica Neue', sans-serif"
     font-size="24px"
     font-weight="bold"
     fill="#d81e5b"
     letter-spacing="-0.5"
     id="text5"><tspan
       x="160"
       y="600"
       id="tspan5">Chris McLeod · chrismcleod.dev/</tspan></text>
</svg>
